# AST/ASF file generated using VICON BodyLanguage
# -----------------------------------------------
:version 1.10
:name VICON
:units
  mass 1.0
  length 0.45
  angle deg
:documentation
   .ast/.asf automatically generated from VICON data using
   VICON BodyBuilder and BodyLanguage model FoxedUp or BRILLIANT.MOD
:root
   order TX TY TZ RX RY RZ
   axis XYZ
   position 0 0 0  
   orientation 0 0 0 
:bonedata
  begin
     id 1 
     name lhipjoint
     direction 0.57768 -0.667037 0.470475 
     length 2.36008 
     axis 0 0 0  XYZ
  end
  begin
     id 2 
     name lfemur
     direction 0.34202 -0.939693 0  
     length 6.97235  
     axis 0 0 20  XYZ
    dof rx ry rz
    limits (-160.0 20.0)
           (-70.0 70.0)
           (-60.0 70.0)
  end
  begin
     id 3 
     name ltibia
     direction 0.34202 -0.939693 0   
     length 6.93428   
     axis 0 0 20   XYZ
    dof rx
    limits (-10.0 170.0)
  end
  begin
     id 4 
     name lfoot
     direction 0.133018 -0.365463 0.921272   
     length 2.18603   
     axis -90 7.62852e-016 20   XYZ
    dof rx rz
    limits (-45.0 90.0)
           (-70.0 20.0)
  end
  begin
     id 5 
     name ltoes
     direction 1.53519e-011 -4.22055e-011 1   
     length 1.07924   
     axis -90 7.62852e-016 20   XYZ
    dof rx
    limits (-90.0 20.0)
  end
  begin
     id 6 
     name rhipjoint
     direction -0.577712 -0.667019 0.470462   
     length 2.36015  
     axis 0 0 0  XYZ 
  end
  begin
     id 7 
     name rfemur
     direction -0.34202 -0.939693 0   
     length 6.71195   
     axis 0 0 -20   XYZ
    dof rx ry rz
    limits (-160.0 20.0)
           (-70.0 70.0)
           (-70.0 60.0)
  end
  begin
     id 8 
     name rtibia
     direction -0.34202 -0.939693 0   
     length 7.04592   
     axis 0 0 -20   XYZ
    dof rx
    limits (-10.0 170.0)
 end
 begin
     id 9 
     name rfoot
     direction -0.113796 -0.312651 0.943027   
     length 2.03846  
     axis -90 -7.62852e-016 -20   XYZ
    dof rx rz
    limits (-45.0 90.0)
           (-20.0 70.0)
  end
  begin
     id 10 
     name rtoes
     direction -1.53586e-011 -4.218e-011 1   
     length 1.01562   
     axis -90 -7.62852e-016 -20   XYZ
    dof rx
    limits (-90.0 20.0)
  end
  begin
     id 11 
     name lowerback
     direction -0.0417299 0.991937 -0.119667   
     length 2.05257   
     axis 0 0 0   XYZ
    dof rx ry rz
    limits (-20.0 45.0)
           (-30.0 30.0)
           (-30.0 30.0)
  end
  begin
     id 12 
     name upperback
     direction -0.00017666 0.999999 0.00105178   
     length 2.05693   
     axis 0 0 0   XYZ
    dof rx ry rz
    limits (-20.0 45.0)
           (-30.0 30.0)
           (-30.0 30.0)
  end
  begin
     id 13 
     name thorax
     direction 0.0185169 0.998203 0.0569866   
     length 2.0932   
     axis 0 0 0   XYZ
    dof rx ry rz
    limits (-20.0 45.0)
           (-30.0 30.0)
           (-30.0 30.0)
  end
  begin
     id 14 
     name lowerneck
     direction -0.0212406 0.982645 0.184277   
     length 1.72509   
     axis 0 0 0   XYZ
    dof rx ry rz
    limits (-20.0 45.0)
           (-30.0 30.0)
           (-30.0 30.0)
  end
  begin
     id 15 
     name upperneck
     direction 0.00528579 0.965323 -0.261004   
     length 1.76294   
     axis 0 0 0   XYZ
    dof rx ry rz
    limits (-20.0 45.0)
           (-30.0 30.0)
           (-30.0 30.0)
  end
  begin
     id 16
     name head
     direction 0.00695421 0.994078 -0.108445  
     length 1.78678  
     axis 0 0 0   XYZ
    dof rx ry rz
    limits (-20.0 45.0)
           (-30.0 30.0)
           (-30.0 30.0)
  end
  begin
     id 17 
     name lclavicle
     direction 0.97277 0.211305 -0.095232  
     length 3.84823  
     axis 0 0 0   XYZ
    dof ry rz
    limits (-20.0 10.0)
           (0.0 20.0)
  end
  begin
     id 18 
     name lhumerus
     direction 1 -4.48957e-011 -1.98313e-027   
     length 4.97185   
     axis 180 -30 -90   XYZ
    dof rx ry rz
    limits (-60.0 90.0)
           (-90.0 90.0)
           (-90.0 90.0)
  end
  begin
     id 19
     name lradius
     direction 1 -4.4898e-011 7.31063e-027   
     length 3.35811   
     axis 180 -30 -90   XYZ
    dof rx
    limits (-10.0 170.0)
  end
  begin
     id 20
     name lwrist
     direction 1 -4.48938e-011 9.95048e-027   
     length 1.67905   
     axis -8.75986e-015 90 90   XYZ
    dof ry
    limits (-180.0 0.0)
 end
  begin
     id 21 
     name lhand
     direction 1 -4.4901e-011 1.9901e-026   
     length 0.622776   
     axis -1.26985e-014 90 90   XYZ
    dof rx rz
    limits (-90.0 90.0)
           (-45.0 45.0)
  end
  begin
     id 22 
     name lfingers
     direction 1 -4.48961e-011 3.98019e-026   
     length 0.502098   
     axis -2.5397e-014 90 90   XYZ
    dof rx
    limits (0.0 90.0)
  end
  begin
     id 23
     name lthumb
     direction 0.707107 -6.34933e-011 0.707107   
     length 0.720915   
     axis -90 45 2.85299e-015   XYZ
    dof rx rz
    limits (-45.0 45.0)
           (-45.0 45.0)
  end
  begin
     id 24 
     name rclavicle
     direction -0.990867 0.133739 -0.0172226   
     length 3.78845  
     axis 0 0 0   XYZ 
    dof ry rz
    limits (-10.0 20.0)
           (-20.0 0.0)
  end
  begin
     id 25 
     name rhumerus
     direction -1 -4.48972e-011 -1.99267e-027  
     length 4.96493   
     axis 180 30 90   XYZ
    dof rx ry rz
    limits (-90.0 60.0)
           (-90.0 90.0)
           (-90.0 90.0)
  end
  begin
     id 26 
     name rradius
     direction -1 -4.48969e-011 8.96093e-027   
     length 3.34929   
     axis 180 30 90   XYZ
    dof rx
    limits (-10.0 170.0)
  end
  begin
     id 27 
     name rwrist
     direction -1 -4.48953e-011 9.95048e-027   
     length 1.67464   
     axis -8.75986e-015 -90 -90   XYZ
    dof ry
    limits (-180.0 0.0)
  end
  begin
     id 28
     name rhand
     direction -1 -4.49001e-011 1.9901e-026   
     length 0.638041   
     axis -1.26985e-014 -90 -90   XYZ
    dof rx rz
    limits (-90.0 90.0)
           (-45.0 45.0)
  end
  begin
     id 29
     name rfingers
     direction -1 -4.48967e-011 3.98019e-026   
     length 0.514405   
     axis -2.5397e-014 -90 -90   XYZ
    dof rx
    limits (0.0 90.0)
  end
  begin
     id 30
     name rthumb
     direction -0.707107 -6.34904e-011 0.707107   
     length 0.738586   
     axis -90 -45 -2.85299e-015   XYZ
    dof rx rz
    limits (-45.0 45.0)
           (-45.0 45.0)
  end
:hierarchy
  begin
    root lhipjoint rhipjoint lowerback
    lhipjoint lfemur
    lfemur ltibia
    ltibia lfoot
    lfoot ltoes
    rhipjoint rfemur
    rfemur rtibia
    rtibia rfoot
    rfoot rtoes
    lowerback upperback
    upperback thorax
    thorax lowerneck lclavicle rclavicle
    lowerneck upperneck
    upperneck head
    lclavicle lhumerus
    lhumerus lradius
    lradius lwrist
    lwrist lhand lthumb
    lhand lfingers
    rclavicle rhumerus
    rhumerus rradius
    rradius rwrist
    rwrist rhand rthumb
    rhand rfingers
  end

#!OML:ASF E:\Mandelcareful walks\Project 1\Capture day 1\Session 1\Subject1.ASF
:FULLY-SPECIFIED
:DEGREES
163
root -24.0754 15.7091 1.79068 -297.977 80.3883 42.2024
lowerback 18.9856 -1.26853 0.608659
upperback 6.19077 -1.25497 -1.24321
thorax -4.00154 -0.457088 -1.40057
lowerneck -27.4256 3.74687 -1.39109
upperneck 13.1733 7.60925 -9.1894
head 8.93531 2.49625 -1.78833
rclavicle 1.03368e-014 -7.95139e-016
rhumerus -31.1495 13.8022 -84.0916
rradius 57.6828
rwrist -11.8367
rhand -14.5683 -27.0595
rfingers 7.12502
rthumb 11.5811 -56.7195
lclavicle 1.03368e-014 -7.95139e-016
lhumerus -38.5771 -32.9059 81.1134
lradius 72.1649
lwrist 13.0364
lhand -24.5521 -12.4918
lfingers 7.12502
lthumb 1.94414 17.4791
rfemur -47.1279 -16.8987 13.5735
rtibia 52.0401
rfoot -23.2558 -7.458
rtoes -1.19711
lfemur -51.969 19.7827 -20.1655
ltibia 42.0132
lfoot -12.0145 11.8073
ltoes -7.81105
164
root -23.9923 15.6803 1.76212 -297.286 80.5098 42.9322
lowerback 19.3456 -1.12438 0.429942
upperback 6.06321 -1.10388 -1.24755
thorax -4.31758 -0.38601 -1.33359
lowerneck -27.5703 3.62316 -1.49989
upperneck 13.2969 7.48861 -9.12118
head 8.98958 2.43175 -1.76596
rclavicle -4.41302e-014 -6.99722e-014
rhumerus -31.2949 14.45 -83.93
rradius 58.1343
rwrist -12.2667
rhand -14.5625 -26.8544
rfingers 7.12502
rthumb 11.5867 -56.5141
lclavicle -4.41302e-014 -6.99722e-014
lhumerus -39.0107 -33.6782 81.5112
lradius 72.7183
lwrist 12.5363
lhand -24.848 -12.6562
lfingers 7.12502
lthumb 1.65838 17.3171
rfemur -46.9319 -17.1972 13.389
rtibia 52.4405
rfoot -23.5706 -7.4369
rtoes -1.65347
lfemur -51.6864 18.724 -19.3663
ltibia 39.8439
lfoot -12.6052 12.1425
ltoes -6.94466
165
root -23.9123 15.6486 1.72797 -296.251 80.8709 43.9486
lowerback 19.1514 -1.04903 0.464729
upperback 6.2598 -0.986427 -1.25761
thorax -4.00371 -0.321692 -1.39256
lowerneck -27.8281 3.51825 -1.46606
upperneck 13.2213 7.34795 -9.15113
head 9.00166 2.3621 -1.8023
rclavicle -8.34896e-015 1.19271e-014
rhumerus -30.7884 14.9359 -83.7916
rradius 58.4233
rwrist -12.493
rhand -14.9577 -26.7479
rfingers 7.12502
rthumb 11.2056 -56.4286
lclavicle -8.34896e-015 1.19271e-014
lhumerus -38.7497 -34.3506 81.6105
lradius 73.0481
lwrist 11.8783
lhand -25.1812 -12.8286
lfingers 7.12502
lthumb 1.33657 17.147
rfemur -46.7908 -17.5355 13.3808
rtibia 52.8417
rfoot -23.8762 -7.61715
rtoes -2.67652
lfemur -51.5848 17.4624 -18.3403
ltibia 38.0374
lfoot -12.6564 12.4495
ltoes -8.245
166
root -23.8175 15.622 1.68324 -295.753 81.2153 44.557
lowerback 19.589 -1.03017 0.402994
upperback 6.06534 -0.978588 -1.21643
thorax -4.43753 -0.322725 -1.31219
lowerneck -27.8451 3.58826 -1.45669
upperneck 13.4295 7.45869 -9.1446
head 9.08225 2.4034 -1.78405
rclavicle 3.97569e-015 -2.46493e-014
rhumerus -30.7177 15.7468 -83.8653
rradius 58.5023
rwrist -12.5064
rhand -15.3754 -26.7312
rfingers 7.12502
rthumb 10.8026 -56.4334
lclavicle 3.97569e-015 -2.46493e-014
lhumerus -39.3651 -34.3257 82.365
lradius 73.3784
lwrist 10.9925
lhand -25.4008 -12.7122
lfingers 7.12502
lthumb 1.12443 17.2646
rfemur -46.4275 -17.8627 13.3411
rtibia 53.2114
rfoot -24.1988 -7.95978
rtoes -4.22702
lfemur -51.4006 16.3641 -17.3764
ltibia 36.7194
lfoot -12.0854 12.868
ltoes -9.56779
167
root -23.7094 15.5944 1.62592 -296.488 81.3498 43.9825
lowerback 19.5997 -0.98331 0.0776937
upperback 6.05095 -0.973401 -1.09969
thorax -4.45054 -0.321428 -1.0038
lowerneck -27.2506 3.64376 -1.83013
upperneck 13.0467 7.57264 -8.98994
head 8.83556 2.4921 -1.65733
rclavicle 7.95139e-015 -1.23246e-014
rhumerus -30.422 16.9041 -83.7542
rradius 58.6369
rwrist -12.5232
rhand -15.3064 -26.7756
rfingers 7.12502
rthumb 10.8692 -56.4743
lclavicle 7.95139e-015 -1.23246e-014
lhumerus -39.8168 -33.5496 83.2255
lradius 73.7688
lwrist 10.0154
lhand -25.8307 -12.658
lfingers 7.12502
lthumb 0.709244 17.3206
rfemur -45.9886 -18.0338 13.1516
rtibia 53.5584
rfoot -24.4372 -8.32353
rtoes -6.3162
lfemur -51.2543 15.6995 -16.721
ltibia 36.0126
lfoot -11.7025 12.8597
ltoes -10.2553
168
root -23.5996 15.5587 1.55984 -298.03 81.4994 42.5248
lowerback 19.7367 -0.759012 0.418455
upperback 6.23664 -0.623546 -1.4954
thorax -4.32397 -0.140349 -1.70002
lowerneck -28.283 3.4302 -1.67225
upperneck 13.3959 7.20967 -8.55907
head 9.09017 2.33062 -1.58529
rclavicle -1.59028e-014 -1.63003e-014
rhumerus -29.7638 16.4435 -84.0632
rradius 58.8822
rwrist -12.3307
rhand -15.3219 -26.7956
rfingers 7.12502
rthumb 10.8542 -56.495
lclavicle -1.59028e-014 -1.63003e-014
lhumerus -39.2557 -33.8957 83.0051
lradius 74.226
lwrist 9.09837
lhand -26.2734 -12.6321
lfingers 7.12502
lthumb 0.281709 17.3475
rfemur -45.6471 -17.9974 12.9877
rtibia 53.9206
rfoot -24.6068 -8.71443
rtoes -8.45166
lfemur -51.379 15.3987 -16.2794
ltibia 36.0077
lfoot -11.3206 12.4814
ltoes -12.5186
169
root -23.4852 15.5151 1.48528 -300.457 81.7001 40.1433
lowerback 20.0802 -0.676207 0.144692
upperback 5.90186 -0.585782 -1.3733
thorax -4.85633 -0.134079 -1.4228
lowerneck -27.5224 3.58719 -1.67628
upperneck 13.2271 7.3853 -8.63559
head 8.91907 2.4323 -1.588
rclavicle 9.14409e-015 5.36719e-014
rhumerus -29.888 17.3879 -84.2831
rradius 59.1695
rwrist -12.4176
rhand -15.3705 -26.92
rfingers 7.12502
rthumb 10.8074 -56.6219
lclavicle 9.14409e-015 5.36719e-014
lhumerus -39.9607 -32.3228 83.9665
lradius 74.5227
lwrist 7.65233
lhand -26.174 -12.912
lfingers 7.12502
lthumb 0.377684 17.0674
rfemur -45.3418 -17.8474 12.8914
rtibia 54.3249
rfoot -24.789 -9.0087
rtoes -10.2175
lfemur -51.6384 15.3998 -15.9378
ltibia 36.712
lfoot -10.3492 11.6953
ltoes -15.5941
